<svg width="24" height="24" viewBox="0 0 24 24" fill="none" xmlns="http://www.w3.org/2000/svg">
<g id="Notif">
<rect id="Rectangle 167" width="24" height="24" rx="12" fill="#FB7D5B"/>
<path id="2" d="M9 16.282C10.1853 15.33 11.114 14.5507 11.786 13.944C12.458 13.328 13.0227 12.6887 13.48 12.026C13.9467 11.354 14.18 10.696 14.18 10.052C14.18 9.44533 14.0307 8.96933 13.732 8.624C13.4427 8.26933 12.9713 8.092 12.318 8.092C11.6833 8.092 11.1887 8.29267 10.834 8.694C10.4887 9.086 10.302 9.61333 10.274 10.276H9.042C9.07933 9.23067 9.39667 8.42333 9.994 7.854C10.5913 7.28467 11.3613 7 12.304 7C13.2653 7 14.026 7.266 14.586 7.798C15.1553 8.33 15.44 9.06267 15.44 9.996C15.44 10.7707 15.2067 11.5267 14.74 12.264C14.2827 12.992 13.76 13.636 13.172 14.196C12.584 14.7467 11.8327 15.3907 10.918 16.128H15.734V17.192H9V16.282Z" fill="white"/>
</g>
</svg>
